<svg xmlns="http://www.w3.org/2000/svg" xmlns:xlink="http://www.w3.org/1999/xlink" width="192" height="210.62" viewBox="0 0 192 210.62">
  <defs>
    <filter id="Path_10" x="0" y="0" width="192" height="210.62" filterUnits="userSpaceOnUse">
      <feOffset dy="2" input="SourceAlpha"/>
      <feGaussianBlur stdDeviation="1.5" result="blur"/>
      <feFlood flood-opacity="0.161"/>
      <feComposite operator="in" in2="blur"/>
      <feComposite in="SourceGraphic"/>
    </filter>
    <filter id="Union_6" x="67.807" y="123.408" width="100.074" height="23.669" filterUnits="userSpaceOnUse">
      <feOffset dy="2" input="SourceAlpha"/>
      <feGaussianBlur stdDeviation="1.5" result="blur-2"/>
      <feFlood flood-opacity="0.161"/>
      <feComposite operator="in" in2="blur-2"/>
      <feComposite in="SourceGraphic"/>
    </filter>
    <filter id="Union_5" x="54.487" y="72.705" width="118.906" height="63.697" filterUnits="userSpaceOnUse">
      <feOffset dx="-1" input="SourceAlpha"/>
      <feGaussianBlur stdDeviation="0.5" result="blur-3"/>
      <feFlood flood-opacity="0.8"/>
      <feComposite operator="in" in2="blur-3"/>
      <feComposite in="SourceGraphic"/>
    </filter>
    <filter id="Union_4" x="55.944" y="136.574" width="123.416" height="59.537" filterUnits="userSpaceOnUse">
      <feOffset dx="-1" input="SourceAlpha"/>
      <feGaussianBlur stdDeviation="0.5" result="blur-4"/>
      <feFlood flood-opacity="0.796"/>
      <feComposite operator="in" in2="blur-4"/>
      <feComposite in="SourceGraphic"/>
    </filter>
  </defs>
  <g id="LogoO" transform="translate(70.925 -136.5)">
    <g id="Group_2" data-name="Group 2" transform="translate(-66.425 139)">
      <g transform="matrix(1, 0, 0, 1, -4.5, -2.5)" filter="url(#Path_10)">
        <path id="Path_10-2" data-name="Path 10" d="M844.388,359.674c-5.995-.331-11.235,4.718-11.566,10.716-1.376,24.991-22.044,45.67-46.913,46.351-9.495.26-18.323-2.845-25.923-7.441a48.79,48.79,0,0,1-10.294-75.119c8.848-9.408,20.815-13.987,33.675-14.34a49.28,49.28,0,0,1,45.2,27.686c2.607,5.413,8.622,6.591,14.032,3.981a10.872,10.872,0,0,0,5.077-14.518c-11.978-24.864-36.85-39.656-64.31-38.9-14.325.392-28.479,4.286-39.811,12.6,9.3-19.093,20.317-38.869,57.3-54.237a10.453,10.453,0,0,0-8.461-19.117,141.714,141.714,0,0,0-45.478,31.943,103.941,103.941,0,0,0-23.1,35.993,186.186,186.186,0,0,0-6.847,17.966c.523-3.644.5-5.663.879-9.383a91.885,91.885,0,0,1,2.129-12.3,107.553,107.553,0,0,1,9.567-25.063c3.768-7.1,8.794-13.641,13.839-19.967,2.325-2.917,5.126-5.5,5.467-9.4a10.3,10.3,0,0,0-3.978-8.941,10.451,10.451,0,0,0-10.533-1.335c-3.88,1.638-6.139,5.578-8.593,8.794a170.749,170.749,0,0,0-15.295,23.084,99.494,99.494,0,0,0-9.221,24.592,151.947,151.947,0,0,0-3.9,25.128v.017a83.463,83.463,0,0,0,.344,14.179c.246,4.166.654,8.874,1.325,13.59-9.822-24.242-7.447-43.345-5.29-59.474A10.452,10.452,0,0,0,673,283.987c-2.144,16.032-2.927,40.472,5.52,65.85,11.81,35.5,42.9,69.982,78.255,83.142a78.224,78.224,0,0,0,61.183-3.475c20.851-10.384,33.034-29.565,36.009-52.41q.415-3.188.592-6.4A10.414,10.414,0,0,0,844.388,359.674Z" transform="translate(-667.08 -233.5)" fill="#ff3f55"/>
      </g>
    </g>
    <g transform="matrix(1, 0, 0, 1, -70.92, 136.5)" filter="url(#Union_6)">
      <path id="Union_6-2" data-name="Union 6" d="M82.488,13.669A2.383,2.383,0,0,1,80.115,11.3V6.484A2.383,2.383,0,0,1,82.488,4.11h5.6V.576h1.989V12.328a1.34,1.34,0,0,1-1.34,1.34Zm-.384-6.8v4.043a.969.969,0,0,0,.97.97h5.011V5.9H83.072A.969.969,0,0,0,82.1,6.868Zm-10.627,6.8V6.484A2.379,2.379,0,0,1,73.833,4.11h5.4V5.9h-4.8a.949.949,0,0,0-.968.97v6.8Zm-9.691,0a2.318,2.318,0,0,1-2.322-2.322V10.294A2.318,2.318,0,0,1,61.786,7.97H67.35V6.851a.948.948,0,0,0-.968-.969H60.049V4.11h6.917a2.361,2.361,0,0,1,2.373,2.374v7.185Zm-.333-3.025v.334a.9.9,0,0,0,.935.919H67.35V9.725H62.388A.872.872,0,0,0,61.453,10.644ZM52.38,13.669V9.424l-4.9-7.452h2.357l3.576,5.6,3.592-5.6h2.339L54.47,9.424v4.244Zm-13.249,0V6.484A2.379,2.379,0,0,1,41.486,4.11h5.4V5.9h-4.8a.949.949,0,0,0-.97.97v6.8Zm-9.657,0A2.371,2.371,0,0,1,27.1,11.3V6.484A2.361,2.361,0,0,1,29.473,4.11h5.381a2.333,2.333,0,0,1,2.339,2.323V7.486a2.322,2.322,0,0,1-2.339,2.322H29.089v1.137a.945.945,0,0,0,.969.953h6.718v1.771Zm-.384-6.818V8.1h5.18a.873.873,0,0,0,.919-.936V6.8a.887.887,0,0,0-.919-.919H30.058A.948.948,0,0,0,29.089,6.851Zm-8.053,6.818V5.9H19.215V4.11h1.821V2.372A2.382,2.382,0,0,1,23.409,0h3.125V1.788H23.993a.948.948,0,0,0-.968.97V4.11h2.84V5.9h-2.84v7.77Zm-7.2,0V5.9H12.013V4.11h1.822V2.372A2.381,2.381,0,0,1,16.208,0h3.124V1.788H16.793a.95.95,0,0,0-.97.97V4.11h2.549V5.9H15.823v7.77Zm-11.228,0A2.618,2.618,0,0,1,0,11.078v-6.5A2.643,2.643,0,0,1,2.607,1.972H8.2a2.609,2.609,0,0,1,2.607,2.607v6.5A2.64,2.64,0,0,1,8.2,13.669Zm-.517-8.84v6A1.062,1.062,0,0,0,3.142,11.9H7.671a1.076,1.076,0,0,0,1.068-1.07v-6a1.077,1.077,0,0,0-1.068-1.07H3.142A1.063,1.063,0,0,0,2.089,4.829Z" transform="translate(72.81 126.41)" fill="#144881" stroke="rgba(0,0,0,0)" stroke-width="1"/>
    </g>
    <g transform="matrix(1, 0, 0, 1, -70.92, 136.5)" filter="url(#Union_5)">
      <path id="Union_5-2" data-name="Union 5" d="M.053,59.686c-.04-.013-.057-.044-.052-.1l.128-1.252c.007-.061.052-.1.135-.119l5.181-1a.069.069,0,0,0,.074-.068l0-.047a.077.077,0,0,0-.058-.082L1.011,55.04a.794.794,0,0,1-.4-.315.744.744,0,0,1-.069-.431l.094-.926A.776.776,0,0,1,.8,52.909a.862.862,0,0,1,.448-.224L6.015,51.6c.044-.008.069-.031.072-.068l.005-.055a.075.075,0,0,0-.058-.082L1.158,49.41a.144.144,0,0,1-.092-.07.185.185,0,0,1-.014-.092l.128-1.261a.081.081,0,0,1,.075-.083.284.284,0,0,1,.148.03L6.836,50.3a1.329,1.329,0,0,1,.536.347.612.612,0,0,1,.1.445l-.111,1.093a.589.589,0,0,1-.193.41,1.468,1.468,0,0,1-.59.237L1.992,53.846a.068.068,0,0,0-.072.069l0,.036a.068.068,0,0,0,.058.081L6.261,55.97a1.482,1.482,0,0,1,.531.351.589.589,0,0,1,.106.441l-.109,1.065a1.166,1.166,0,0,1-.057.272.505.505,0,0,1-.128.2.719.719,0,0,1-.236.14,2.366,2.366,0,0,1-.369.1L.208,59.687a.41.41,0,0,1-.083.01A.219.219,0,0,1,.053,59.686ZM7.629,46.6l-5.9-.165a.322.322,0,0,1-.152-.035.08.08,0,0,1-.029-.1l.4-1.193c.02-.059.072-.088.157-.086l5.274.171a.067.067,0,0,0,.086-.05l.015-.044A.076.076,0,0,0,7.444,45l-3.9-2.921a.791.791,0,0,1-.322-.4.738.738,0,0,1,.027-.436l.3-.881a.78.78,0,0,1,.267-.41.856.856,0,0,1,.486-.119H9.183a.077.077,0,0,0,.086-.05l.018-.054a.076.076,0,0,0-.039-.092L4.934,36.624a.146.146,0,0,1-.073-.089.2.2,0,0,1,.005-.093l.406-1.2a.079.079,0,0,1,.091-.064.274.274,0,0,1,.138.061l4.773,3.511a1.341,1.341,0,0,1,.447.458.619.619,0,0,1,0,.455L10.368,40.7a.593.593,0,0,1-.278.357,1.48,1.48,0,0,1-.629.1l-4.7-.028a.07.07,0,0,0-.087.051l-.011.035a.069.069,0,0,0,.038.093l3.751,2.839a1.5,1.5,0,0,1,.44.46.6.6,0,0,1,.005.453L8.557,46.08a1.189,1.189,0,0,1-.116.254.48.48,0,0,1-.17.165.678.678,0,0,1-.261.085,2.12,2.12,0,0,1-.291.017Zm101.577-7.142-.443-.849a.184.184,0,0,1,.088-.28l4.349-2.262c.055-.028.072-.065.049-.11l-.039-.075a.118.118,0,0,0-.124-.074l-4.607.258a2.831,2.831,0,0,1-.485-.007,1.334,1.334,0,0,1-.372-.093.8.8,0,0,1-.284-.2,1.589,1.589,0,0,1-.23-.34l-.208-.4a1.628,1.628,0,0,1-.147-.384.81.81,0,0,1,0-.349,1.356,1.356,0,0,1,.137-.357,2.786,2.786,0,0,1,.274-.4l2.857-3.624a.118.118,0,0,0,.01-.143l-.038-.076c-.024-.044-.064-.052-.118-.023l-4.351,2.262a.183.183,0,0,1-.278-.088l-.442-.85a.186.186,0,0,1,.084-.286l4.782-2.488a1.279,1.279,0,0,1,.75-.2c.181.033.35.2.5.489l.473.909a2.021,2.021,0,0,1,.139.33.666.666,0,0,1,.026.283.809.809,0,0,1-.1.279,2.143,2.143,0,0,1-.237.33l-3.1,3.813a.132.132,0,0,0-.015.156l.052.1a.132.132,0,0,0,.136.077l4.9-.347a2.1,2.1,0,0,1,.4,0,.8.8,0,0,1,.285.079.673.673,0,0,1,.215.179,1.917,1.917,0,0,1,.187.3l.465.891a.794.794,0,0,1,.106.686,1.276,1.276,0,0,1-.592.5l-4.783,2.488a.247.247,0,0,1-.112.032A.2.2,0,0,1,109.206,39.458ZM12.24,35.386a2.425,2.425,0,0,1-.376-.069L6.145,33.853a.3.3,0,0,1-.139-.069A.079.079,0,0,1,6,33.677L6.655,32.6c.032-.054.09-.07.173-.05l5.106,1.332a.068.068,0,0,0,.095-.031l.025-.04a.077.077,0,0,0-.017-.1L8.875,30.007a.794.794,0,0,1-.226-.458.756.756,0,0,1,.124-.42l.485-.793A.776.776,0,0,1,9.608,28a.847.847,0,0,1,.5-.009l4.765,1.08a.075.075,0,0,0,.095-.031l.03-.048a.078.078,0,0,0-.017-.1l-3.541-3.9a.146.146,0,0,1-.052-.1.185.185,0,0,1,.026-.089l.661-1.082a.079.079,0,0,1,.1-.042.289.289,0,0,1,.121.091l3.88,4.478a1.33,1.33,0,0,1,.334.544.62.62,0,0,1-.1.445l-.572.938a.591.591,0,0,1-.351.286,1.467,1.467,0,0,1-.634-.042l-4.576-1.063a.067.067,0,0,0-.095.031l-.02.032a.068.068,0,0,0,.016.1l3.032,3.6a1.452,1.452,0,0,1,.327.546.589.589,0,0,1-.094.443l-.557.914a1.245,1.245,0,0,1-.169.222.5.5,0,0,1-.2.124.6.6,0,0,1-.2.029ZM103.953,28.9a1.838,1.838,0,0,1-.844-.37,4.843,4.843,0,0,1-.865-.866L100.428,25.4a4.758,4.758,0,0,1-.655-1.028,1.836,1.836,0,0,1-.177-.9,1.722,1.722,0,0,1,.313-.842,3.949,3.949,0,0,1,.807-.833l1.258-1.011a3.877,3.877,0,0,1,.985-.6,1.721,1.721,0,0,1,.885-.12,1.891,1.891,0,0,1,.845.363,4.624,4.624,0,0,1,.864.86l1.817,2.263a4.642,4.642,0,0,1,.654,1.033,1.879,1.879,0,0,1,.176.907,1.7,1.7,0,0,1-.312.835,4.058,4.058,0,0,1-.805.827l-1.26,1.012a4.1,4.1,0,0,1-.985.609,1.766,1.766,0,0,1-.677.142A1.464,1.464,0,0,1,103.953,28.9Zm-.641-7.265a2.507,2.507,0,0,0-.518.338l-1.1.881a2.646,2.646,0,0,0-.44.433.842.842,0,0,0-.182.4.787.787,0,0,0,.077.426,2.518,2.518,0,0,0,.332.511l1.746,2.175a2.515,2.515,0,0,0,.427.434.793.793,0,0,0,.4.167.843.843,0,0,0,.434-.09,2.657,2.657,0,0,0,.518-.337l1.1-.882a2.67,2.67,0,0,0,.441-.433.853.853,0,0,0,.182-.4.8.8,0,0,0-.078-.426,2.525,2.525,0,0,0-.332-.511l-1.745-2.175a2.562,2.562,0,0,0-.427-.434.8.8,0,0,0-.4-.168l-.057,0A.89.89,0,0,0,103.312,21.638ZM17.629,27.392l-.71-.556a.187.187,0,0,1-.028-.3l.567-.724a.183.183,0,0,1,.29-.036l.709.557a.182.182,0,0,1,.035.29l-.568.724a.212.212,0,0,1-.162.1A.218.218,0,0,1,17.629,27.392Zm3.58-4.884a1.726,1.726,0,0,1-.859-.258,3.928,3.928,0,0,1-.884-.751l-1.09-1.193a3.9,3.9,0,0,1-.666-.944,1.732,1.732,0,0,1-.177-.874,1.9,1.9,0,0,1,.308-.868,4.735,4.735,0,0,1,.8-.918l2.142-1.957a4.766,4.766,0,0,1,.989-.721,1.9,1.9,0,0,1,.9-.232,1.7,1.7,0,0,1,.853.258,4.026,4.026,0,0,1,.877.751l1.09,1.192a4.116,4.116,0,0,1,.672.944,1.7,1.7,0,0,1,.184.877,1.851,1.851,0,0,1-.315.866,4.923,4.923,0,0,1-.81.918L23.08,21.555a4.766,4.766,0,0,1-.983.719,1.854,1.854,0,0,1-.864.234Zm.9-7.126a2.585,2.585,0,0,0-.488.363l-2.059,1.882a2.439,2.439,0,0,0-.406.454.78.78,0,0,0-.141.409.84.84,0,0,0,.117.427,2.563,2.563,0,0,0,.37.495l.95,1.04a2.678,2.678,0,0,0,.46.414.855.855,0,0,0,.416.155.775.775,0,0,0,.42-.105,2.481,2.481,0,0,0,.488-.363L24.3,18.672a2.542,2.542,0,0,0,.407-.454.789.789,0,0,0,.141-.409.849.849,0,0,0-.117-.427,2.663,2.663,0,0,0-.37-.5l-.951-1.041a2.628,2.628,0,0,0-.46-.411.831.831,0,0,0-.416-.155h-.043A.8.8,0,0,0,22.114,15.382Zm75.7,7.034L94.646,19.6a4.824,4.824,0,0,1-.817-.9,1.833,1.833,0,0,1-.323-.86,1.708,1.708,0,0,1,.168-.88A3.949,3.949,0,0,1,94.331,16L95.4,14.793a3.889,3.889,0,0,1,.87-.759,1.722,1.722,0,0,1,.853-.266,1.891,1.891,0,0,1,.894.218,4.644,4.644,0,0,1,1,.7l3.164,2.815a.182.182,0,0,1,.017.291l-.612.689a.187.187,0,0,1-.3.024l-3.123-2.779a2.53,2.53,0,0,0-.493-.357.811.811,0,0,0-.422-.1.849.849,0,0,0-.409.158,2.642,2.642,0,0,0-.458.422l-.887,1a2.649,2.649,0,0,0-.37.506.835.835,0,0,0-.111.429.772.772,0,0,0,.147.407,2.433,2.433,0,0,0,.411.449L98.7,21.419a.183.183,0,0,1,.017.292L98.1,22.4a.2.2,0,0,1-.149.082A.217.217,0,0,1,97.812,22.416ZM91.453,17.06l-.745-.539a.187.187,0,0,1-.055-.293l.528-.731a.187.187,0,0,1,.3-.041l.746.538a.183.183,0,0,1,.046.289l-.528.731a.2.2,0,0,1-.155.1A.232.232,0,0,1,91.453,17.06ZM28.125,16.9l-2.113-3.264a3.967,3.967,0,0,1-.5-1.041,1.741,1.741,0,0,1-.029-.893,1.88,1.88,0,0,1,.447-.8,4.666,4.666,0,0,1,.944-.773l3.469-2.245a.187.187,0,0,1,.293.057l.485.749a.186.186,0,0,1-.069.29L27.63,11.186a2.533,2.533,0,0,0-.476.381.784.784,0,0,0-.207.381.835.835,0,0,0,.045.441,2.626,2.626,0,0,0,.282.549l.1.157,4.431-2.867a.183.183,0,0,1,.285.061l.4.623a.182.182,0,0,1-.061.286L28,14.065l1.325,2.05a.181.181,0,0,1-.06.285l-.852.551a.253.253,0,0,1-.136.048A.189.189,0,0,1,28.125,16.9Zm60.158-2.234a4.8,4.8,0,0,1-1.21-.512l-3.817-2.176a.25.25,0,0,1-.107-.385l2.978-5.221a.249.249,0,0,1,.384-.105l3.817,2.177a4.821,4.821,0,0,1,1.058.782,2.156,2.156,0,0,1,.538.858,1.938,1.938,0,0,1,.035.972,3.864,3.864,0,0,1-.446,1.114l-.632,1.109a3.789,3.789,0,0,1-.732.95,1.919,1.919,0,0,1-.854.464,1.838,1.838,0,0,1-.43.049A2.429,2.429,0,0,1,88.282,14.662ZM86.8,8.082l-1.837,3.223a.107.107,0,0,0,.046.167L87.687,13a2.821,2.821,0,0,0,.641.28,1.017,1.017,0,0,0,.517.012.953.953,0,0,0,.439-.268,2.776,2.776,0,0,0,.409-.565l.512-.9a2.715,2.715,0,0,0,.278-.641.945.945,0,0,0,.007-.514,1.013,1.013,0,0,0-.274-.439,2.762,2.762,0,0,0-.567-.409L86.974,8.029a.141.141,0,0,0-.069-.021A.121.121,0,0,0,86.8,8.082Zm-51.824,4.5L33.384,9.038a3.9,3.9,0,0,1-.336-1.106,1.729,1.729,0,0,1,.105-.886,1.89,1.89,0,0,1,.564-.727A4.588,4.588,0,0,1,34.767,5.7L38.537,4a.187.187,0,0,1,.281.1l.366.815a.187.187,0,0,1-.112.277l-3.718,1.67a2.555,2.555,0,0,0-.528.3.787.787,0,0,0-.262.345.857.857,0,0,0-.023.443,2.694,2.694,0,0,0,.2.586l.075.171,4.815-2.164a.184.184,0,0,1,.274.1l.3.678a.182.182,0,0,1-.1.273L35.289,9.768l1,2.227a.183.183,0,0,1-.1.273l-.926.417a.285.285,0,0,1-.114.028A.183.183,0,0,1,34.978,12.584Zm46.864-1.3-1.136-.419a.359.359,0,0,1-.148-.085.328.328,0,0,1-.057-.121l-.716-2.346L76.938,7.264l-.647,1.754a.182.182,0,0,1-.265.122l-.951-.351a.185.185,0,0,1-.131-.267l2.1-5.711a.248.248,0,0,1,.361-.166l4.732,1.743a2.083,2.083,0,0,1,1.285.995A2.009,2.009,0,0,1,83.368,6.9l-.186.5a2.18,2.18,0,0,1-.75,1.085,1.572,1.572,0,0,1-1.212.194l.818,2.423a.15.15,0,0,1-.022.143.106.106,0,0,1-.1.053A.229.229,0,0,1,81.842,11.285ZM78.011,4.357l-.676,1.832,3.376,1.244a.905.905,0,0,0,.7.041.88.88,0,0,0,.4-.522l.137-.37a.88.88,0,0,0,.032-.658.909.909,0,0,0-.563-.428l-3.26-1.2a.168.168,0,0,0-.059-.012A.1.1,0,0,0,78.011,4.357ZM42.892,8.851a1.721,1.721,0,0,1-.649-.619,3.9,3.9,0,0,1-.449-1.069l-.432-1.557a3.9,3.9,0,0,1-.168-1.142,1.727,1.727,0,0,1,.239-.861,1.879,1.879,0,0,1,.666-.635,4.681,4.681,0,0,1,1.131-.456l3.982-1.107a.187.187,0,0,1,.263.142l.239.859a.186.186,0,0,1-.153.257l-3.953,1.1a2.558,2.558,0,0,0-.568.221.818.818,0,0,0-.315.3.785.785,0,0,0-.089.435,2.787,2.787,0,0,0,.111.607l.025.091L47.884,4a.181.181,0,0,1,.254.144l.2.714a.183.183,0,0,1-.144.255L43.082,6.532l.042.154a2.871,2.871,0,0,0,.22.578.787.787,0,0,0,.3.326.818.818,0,0,0,.425.1,2.493,2.493,0,0,0,.6-.1l3.953-1.1a.187.187,0,0,1,.264.14l.239.86a.188.188,0,0,1-.153.257L44.992,8.847a4.731,4.731,0,0,1-1.2.2h-.034A1.832,1.832,0,0,1,42.892,8.851Zm30.916-.488-1.173-.217a.216.216,0,0,1-.19-.16l-.434-1.313-4.34-.806-.858,1.072a.227.227,0,0,1-.235.082l-1.2-.223c-.079-.015-.123-.043-.131-.087a.193.193,0,0,1,.051-.147l4.06-4.987a1.573,1.573,0,0,1,.556-.475.942.942,0,0,1,.544-.047l.545.1a1.15,1.15,0,0,1,.564.253,1.475,1.475,0,0,1,.367.646l2.026,6.117a.193.193,0,0,1-.006.156.1.1,0,0,1-.09.04A.308.308,0,0,1,73.808,8.363Zm-3.4-5.9L68.452,4.9l3.177.59-.965-2.978a.114.114,0,0,0-.09-.083l-.056-.01-.022,0A.116.116,0,0,0,70.4,2.468ZM50.444,7.218l-.677-6.048a.249.249,0,0,1,.248-.312L55.026.3a2.081,2.081,0,0,1,1.6.313,2.014,2.014,0,0,1,.627,1.384l.06.532a2.19,2.19,0,0,1-.185,1.306,1.566,1.566,0,0,1-1,.716l1.818,1.8a.147.147,0,0,1,.043.137c-.005.063-.052.1-.139.11l-1.2.135a.367.367,0,0,1-.172-.009.359.359,0,0,1-.1-.083L54.679,4.863,51.664,5.2l.208,1.858a.182.182,0,0,1-.182.228L50.682,7.4l-.043,0A.18.18,0,0,1,50.444,7.218Zm4.436-5.61L51.427,2c-.08.009-.116.05-.109.126l.217,1.941,3.576-.4a.914.914,0,0,0,.649-.281.889.889,0,0,0,.126-.648l-.044-.392a.879.879,0,0,0-.266-.6.755.755,0,0,0-.493-.141A1.742,1.742,0,0,0,54.88,1.608ZM62.706,6.76l-1.014-.043c-.144-.006-.213-.078-.208-.215l.078-1.8L58.421.184A.126.126,0,0,1,58.4.057.1.1,0,0,1,58.512,0L59.77.054a.254.254,0,0,1,.221.122l2.359,3.5L65.019.394a.251.251,0,0,1,.23-.1l1.229.053a.1.1,0,0,1,.1.065.121.121,0,0,1-.024.126L63,4.762l-.077,1.8a.179.179,0,0,1-.2.2Z" transform="translate(57.49 74.71)" fill="#fff" stroke="rgba(0,0,0,0)" stroke-width="1"/>
    </g>
    <g transform="matrix(1, 0, 0, 1, -70.92, 136.5)" filter="url(#Union_4)">
      <path id="Union_4-2" data-name="Union 4" d="M58.414,55.535l-.92-.015a.183.183,0,0,1-.2-.209l.063-3.841-.9-.015a.15.15,0,0,1-.166-.173l.012-.769a.15.15,0,0,1,.173-.167l.9.015,0-.2a3.735,3.735,0,0,1,.1-.849,1.219,1.219,0,0,1,.31-.572,1.286,1.286,0,0,1,.587-.324,3.373,3.373,0,0,1,.931-.093l1.137.018a.15.15,0,0,1,.166.172l-.012.769a.149.149,0,0,1-.172.167l-.911-.015a.827.827,0,0,0-.626.173.843.843,0,0,0-.175.575l0,.2,1.645.027a.148.148,0,0,1,.165.171l-.012.77a.149.149,0,0,1-.171.167l-1.643-.026-.063,3.84a.181.181,0,0,1-.2.2Zm3.97-.324-.315-3.828-.9.075a.149.149,0,0,1-.183-.154l-.064-.768a.15.15,0,0,1,.154-.182l.9-.074-.016-.2a3.7,3.7,0,0,1,.013-.853,1.245,1.245,0,0,1,.252-.6,1.3,1.3,0,0,1,.554-.381,3.347,3.347,0,0,1,.917-.184l1.133-.094a.149.149,0,0,1,.182.154l.064.768a.15.15,0,0,1-.155.182l-.908.075a.82.82,0,0,0-.607.235.84.84,0,0,0-.117.588l.017.2,1.637-.136a.15.15,0,0,1,.183.155l.064.767a.15.15,0,0,1-.155.182l-1.638.136.316,3.827a.181.181,0,0,1-.188.223l-.917.076h-.03C62.459,55.4,62.4,55.337,62.384,55.21Zm-10.014.031-2.879-.364a4.849,4.849,0,0,1-1.185-.282,1.86,1.86,0,0,1-.753-.526,1.72,1.72,0,0,1-.359-.823,3.922,3.922,0,0,1,0-1.159l.2-1.6a3.9,3.9,0,0,1,.289-1.118,1.72,1.72,0,0,1,.552-.7,1.894,1.894,0,0,1,.86-.326,4.675,4.675,0,0,1,1.219.016l2.88.365a4.694,4.694,0,0,1,1.188.288,1.9,1.9,0,0,1,.757.531,1.694,1.694,0,0,1,.356.816,4.011,4.011,0,0,1,0,1.155l-.2,1.6a4.054,4.054,0,0,1-.283,1.124,1.706,1.706,0,0,1-.549.707,1.853,1.853,0,0,1-.865.321,3.647,3.647,0,0,1-.476.029A5.989,5.989,0,0,1,52.369,55.241Zm-2.77-5.6a.778.778,0,0,0-.4.157.843.843,0,0,0-.251.366,2.651,2.651,0,0,0-.137.6l-.177,1.4a2.631,2.631,0,0,0-.017.618.859.859,0,0,0,.15.417.791.791,0,0,0,.351.253,2.532,2.532,0,0,0,.594.136l2.768.35a2.516,2.516,0,0,0,.609.016.781.781,0,0,0,.4-.157.839.839,0,0,0,.25-.366,2.634,2.634,0,0,0,.138-.6l.177-1.4a2.659,2.659,0,0,0,.017-.617.864.864,0,0,0-.151-.417.8.8,0,0,0-.352-.253,2.512,2.512,0,0,0-.593-.136l-2.767-.351a3.337,3.337,0,0,0-.4-.027A1.722,1.722,0,0,0,49.6,49.642Zm18.116,5.118a1.569,1.569,0,0,1-.737-.2,1.3,1.3,0,0,1-.476-.511,2.947,2.947,0,0,1-.274-.832l-.256-1.328a2.917,2.917,0,0,1-.055-.874,1.289,1.289,0,0,1,.253-.652,1.6,1.6,0,0,1,.609-.462,4.477,4.477,0,0,1,1.027-.307l2.7-.521A3.327,3.327,0,0,1,71.3,49a1.055,1.055,0,0,1,.539.163,1.013,1.013,0,0,1,.344.421,2.918,2.918,0,0,1,.21.691l.17.876a.543.543,0,0,1-.051.435.59.59,0,0,1-.374.193l-4.657.9.043.221a.834.834,0,0,0,.329.587,1.234,1.234,0,0,0,.844.039l3.845-.742a.15.15,0,0,1,.2.135l.15.774a.15.15,0,0,1-.134.2l-3.975.766a4.955,4.955,0,0,1-.934.1C67.8,54.762,67.758,54.761,67.715,54.759Zm2.732-4.611-2.315.447a1.262,1.262,0,0,0-.77.345.842.842,0,0,0-.086.672l.049.249,3.735-.721a.141.141,0,0,0,.126-.187l-.075-.388a.568.568,0,0,0-.2-.382.43.43,0,0,0-.242-.059A1.208,1.208,0,0,0,70.448,50.148ZM42.139,53.391,41.023,53a.365.365,0,0,1-.14-.079A.438.438,0,0,1,40.8,52.8l-.714-1.329-.454.267a3.549,3.549,0,0,1-.445.23,1.242,1.242,0,0,1-.388.1,1.367,1.367,0,0,1-.417-.033,4.47,4.47,0,0,1-.522-.155l-1.665-.59a1.24,1.24,0,0,1-.742-.6,1.372,1.372,0,0,1,.033-1.074l.185-.522a1.721,1.721,0,0,1,.467-.741A1.676,1.676,0,0,1,36.975,48l1.183-.188-.33-.615a2.585,2.585,0,0,1-.144-.325,1.152,1.152,0,0,1-.06-.28,1.168,1.168,0,0,1,.016-.283,2.159,2.159,0,0,1,.09-.322l.192-.541a1.44,1.44,0,0,1,.484-.715.817.817,0,0,1,.784-.05l2.187.775a.946.946,0,0,1,.619.514,1.014,1.014,0,0,1,0,.73l-.252.708a3.489,3.489,0,0,1-.185.439,1.11,1.11,0,0,1-.221.3.993.993,0,0,1-.3.193,1.922,1.922,0,0,1-.428.111l-.814.13.727,1.325,1.616-.932a.4.4,0,0,1,.118-.038.368.368,0,0,1,.165.028l.868.308c.081.029.125.076.129.14a.166.166,0,0,1-.105.156L41.061,50.9l1.26,2.291a.141.141,0,0,1-.023.161.126.126,0,0,1-.1.054A.163.163,0,0,1,42.139,53.391Zm-4.52-4.474a.765.765,0,0,0-.662.572l-.088.248a.593.593,0,0,0-.021.455.511.511,0,0,0,.3.243l1.044.371a2.174,2.174,0,0,0,.254.073.679.679,0,0,0,.2.018.667.667,0,0,0,.185-.044,1.459,1.459,0,0,0,.208-.107l.513-.3-.9-1.7Zm1.408-2.679-.1.283a.732.732,0,0,0-.054.28.782.782,0,0,0,.1.273l.307.568.8-.134a.556.556,0,0,0,.321-.116.747.747,0,0,0,.162-.29l.121-.337a.387.387,0,0,0,0-.282.342.342,0,0,0-.219-.182l-1-.355a.356.356,0,0,0-.12-.023C39.208,45.925,39.1,46.03,39.027,46.239Zm35.4,6.974-.928-2.9a2.955,2.955,0,0,1-.158-.862,1.3,1.3,0,0,1,.174-.677,1.6,1.6,0,0,1,.55-.53,4.421,4.421,0,0,1,.981-.428l2.505-.8a.149.149,0,0,1,.212.109l.241.751a.15.15,0,0,1-.11.213l-2.379.763a1.927,1.927,0,0,0-.459.2.674.674,0,0,0-.248.257.649.649,0,0,0-.059.354,2.2,2.2,0,0,0,.106.484l.85,2.656a.183.183,0,0,1-.134.261l-.876.28a.313.313,0,0,1-.1.017A.179.179,0,0,1,74.428,53.213ZM80.851,50.7a1.717,1.717,0,0,1-.747-.5,3.963,3.963,0,0,1-.628-.974L77.8,45.72a.187.187,0,0,1,.107-.28L78.824,45a.183.183,0,0,1,.276.1l1.614,3.382a2.679,2.679,0,0,0,.324.537.84.84,0,0,0,.353.27.778.778,0,0,0,.431.022,2.416,2.416,0,0,0,.573-.205l2.348-1.121a2.537,2.537,0,0,0,.52-.316.777.777,0,0,0,.254-.35.806.806,0,0,0,.008-.441,2.823,2.823,0,0,0-.217-.588l-1.613-3.381a.182.182,0,0,1,.1-.276l.923-.441a.183.183,0,0,1,.276.1L86.665,45.8a4.1,4.1,0,0,1,.368,1.1,1.7,1.7,0,0,1-.079.892,1.856,1.856,0,0,1-.553.736,4.847,4.847,0,0,1-1.041.643l-2.441,1.166a4.782,4.782,0,0,1-1.15.4,2.2,2.2,0,0,1-.41.041A1.658,1.658,0,0,1,80.851,50.7Zm9.5-2.067-2.9-4.219a2.949,2.949,0,0,1-.4-.781,1.292,1.292,0,0,1-.029-.7,1.6,1.6,0,0,1,.375-.666,4.392,4.392,0,0,1,.817-.692l2.168-1.489a4.512,4.512,0,0,1,.936-.511,1.6,1.6,0,0,1,.76-.111,1.271,1.271,0,0,1,.64.277,2.925,2.925,0,0,1,.585.653l.766,1.115a2.986,2.986,0,0,1,.4.78,1.286,1.286,0,0,1,.028.7,1.549,1.549,0,0,1-.38.665,4.663,4.663,0,0,1-.817.687l-2.9,1.993,1.057,1.54a.183.183,0,0,1-.053.288l-.759.52a.248.248,0,0,1-.139.051A.19.19,0,0,1,90.351,48.634Zm1.011-7.786a2.082,2.082,0,0,0-.448.245l-1.95,1.339a2.076,2.076,0,0,0-.382.324.684.684,0,0,0-.163.318.641.641,0,0,0,.044.356,2.2,2.2,0,0,0,.241.433L89.762,45.4l2.8-1.92a2.22,2.22,0,0,0,.391-.325.631.631,0,0,0,.164-.317.7.7,0,0,0-.045-.357,2.263,2.263,0,0,0-.244-.436l-.474-.689a2.2,2.2,0,0,0-.316-.38.65.65,0,0,0-.317-.171.552.552,0,0,0-.1-.009A.757.757,0,0,0,91.362,40.848ZM26.484,48.49a2.38,2.38,0,0,1-.9-.358l-.563-.338a.149.149,0,0,1-.058-.232l.4-.661a.149.149,0,0,1,.231-.058l.476.285a.5.5,0,0,0,.521.061l.894-.5a.691.691,0,0,1-.252-.283.919.919,0,0,1-.056-.373l.078-5.058a.18.18,0,0,1,.072-.147.134.134,0,0,1,.153.009l.926.555a.232.232,0,0,1,.126.23l-.073,4.173a.926.926,0,0,0,.011.21.153.153,0,0,0,.07.092l3.866-2.149a.231.231,0,0,1,.261,0l.9.541a.134.134,0,0,1,.08.13.183.183,0,0,1-.1.134l-6.365,3.595a1.133,1.133,0,0,1-.562.15A1.2,1.2,0,0,1,26.484,48.49ZM22.8,43.607a4.7,4.7,0,0,1-.888-.59l-2.033-1.653a4.671,4.671,0,0,1-.762-.752,1.564,1.564,0,0,1-.322-.692,1.3,1.3,0,0,1,.085-.692,2.986,2.986,0,0,1,.461-.745l1.92-2.361a.191.191,0,0,1,.3-.032l.714.581a.187.187,0,0,1,.025.3l-1.713,2.106a2.722,2.722,0,0,0-.285.41.639.639,0,0,0-.088.332.564.564,0,0,0,.119.315,1.852,1.852,0,0,0,.353.355l1.873,1.522a2.083,2.083,0,0,0,.425.281.686.686,0,0,0,.351.067.65.65,0,0,0,.326-.14,2.274,2.274,0,0,0,.35-.357l1.712-2.106a.187.187,0,0,1,.3-.037l.714.58a.188.188,0,0,1,.024.3l-1.92,2.361a2.926,2.926,0,0,1-.636.6,1.28,1.28,0,0,1-.66.224h-.057A1.609,1.609,0,0,1,22.8,43.607Zm75.359-4.872a3.921,3.921,0,0,1-.926-.7l-2.785-2.713a.187.187,0,0,1,0-.3l.707-.727a.183.183,0,0,1,.292,0l2.686,2.614a2.692,2.692,0,0,0,.489.392.841.841,0,0,0,.422.13.785.785,0,0,0,.414-.128,2.523,2.523,0,0,0,.467-.392l2.654-2.724a.183.183,0,0,1,.292,0l.659.642a.184.184,0,0,1,0,.292l-2.694,2.765a4.762,4.762,0,0,1-.939.776,1.853,1.853,0,0,1-.873.284h-.066A1.746,1.746,0,0,1,98.157,38.736ZM16.4,38.092a2.416,2.416,0,0,1-.613-.508L12.04,33.454a.249.249,0,0,1,.019-.4l4.449-4.041a.249.249,0,0,1,.4.019l3.637,4a1.981,1.981,0,0,1,.64,1.277A1.527,1.527,0,0,1,20.6,35.4l-.333.3a1.346,1.346,0,0,1-1.288.356,1.293,1.293,0,0,1-.461,1.294l-.4.366a2.415,2.415,0,0,1-.558.392,1.234,1.234,0,0,1-.564.139A1.22,1.22,0,0,1,16.4,38.092Zm-2.537-4.736a.108.108,0,0,0-.008.173l2.589,2.85a.828.828,0,0,0,.461.3.54.54,0,0,0,.429-.176l.264-.24a.554.554,0,0,0,.211-.425,1.011,1.011,0,0,0-.322-.577L14.9,32.415Zm2.767-2.513-.973.884,2.588,2.851a1.048,1.048,0,0,0,.534.378A.508.508,0,0,0,19.2,34.8l.237-.215a.521.521,0,0,0,.205-.409.825.825,0,0,0-.255-.485l-2.583-2.843a.119.119,0,0,0-.088-.047A.13.13,0,0,0,16.634,30.843Zm87.071,2.5a2.942,2.942,0,0,1-.766-.422l-1.09-.8a2.938,2.938,0,0,1-.634-.6,1.284,1.284,0,0,1-.256-.651,1.6,1.6,0,0,1,.133-.753,4.486,4.486,0,0,1,.544-.922l1.574-2.143a4.414,4.414,0,0,1,.715-.791,1.6,1.6,0,0,1,.681-.356,1.3,1.3,0,0,1,.7.051,2.942,2.942,0,0,1,.767.424l1.089.8a2.94,2.94,0,0,1,.633.605,1.29,1.29,0,0,1,.257.649,1.54,1.54,0,0,1-.139.754,4.633,4.633,0,0,1-.545.917l-1.574,2.142a4.552,4.552,0,0,1-.714.8,1.541,1.541,0,0,1-.674.355,1.174,1.174,0,0,1-.253.028A1.353,1.353,0,0,1,103.705,33.344Zm.979-6.068a.629.629,0,0,0-.322.154,2.223,2.223,0,0,0-.339.381l-1.418,1.93a2.305,2.305,0,0,0-.257.428.62.62,0,0,0-.049.355.67.67,0,0,0,.159.322,2.2,2.2,0,0,0,.366.326l.718.528a2.239,2.239,0,0,0,.429.257.646.646,0,0,0,.351.053.677.677,0,0,0,.322-.153,2.023,2.023,0,0,0,.336-.371l1.419-1.93a2.027,2.027,0,0,0,.258-.44.674.674,0,0,0,.05-.353.656.656,0,0,0-.156-.319,2.23,2.23,0,0,0-.373-.332l-.72-.528a2.136,2.136,0,0,0-.421-.252.73.73,0,0,0-.28-.062A.564.564,0,0,0,104.685,27.275ZM7.393,29.6a.249.249,0,0,1-.126-.113l-.207-.315c-.082-.125-.058-.213.075-.263l1.309-.555-.087-.134a.186.186,0,0,1,.053-.294l.762-.5a.187.187,0,0,1,.291.067l.505.769a.183.183,0,0,1-.059.287l-.668.438a1.84,1.84,0,0,1-.178.106,1.412,1.412,0,0,1-.228.081l-1.258.41a.486.486,0,0,1-.133.023A.169.169,0,0,1,7.393,29.6Zm.022-2.9-.47-.792a.182.182,0,0,1,.073-.282l5.7-3.386a.183.183,0,0,1,.283.072l.47.791a.182.182,0,0,1-.072.283L7.7,26.771a.241.241,0,0,1-.123.04A.191.191,0,0,1,7.415,26.7Zm101.164-.22a2.907,2.907,0,0,1-.817-.316l-1.188-.647a2.929,2.929,0,0,1-.708-.515,1.273,1.273,0,0,1-.343-.609,1.618,1.618,0,0,1,.03-.764,4.538,4.538,0,0,1,.415-.988l1.806-3.316a.149.149,0,0,1,.229-.067l.693.377a.15.15,0,0,1,.068.229l-1.744,3.2a2.047,2.047,0,0,0-.2.471.593.593,0,0,0,.2.646,2.291,2.291,0,0,0,.411.277l.733.4a2.211,2.211,0,0,0,.46.2.672.672,0,0,0,.352.01.645.645,0,0,0,.3-.191,2.06,2.06,0,0,0,.288-.421l1.743-3.2a.149.149,0,0,1,.23-.068l.693.377a.15.15,0,0,1,.068.229L110.5,25.108a4.614,4.614,0,0,1-.6.886,1.564,1.564,0,0,1-.621.443,1.231,1.231,0,0,1-.415.071A1.418,1.418,0,0,1,108.579,26.48ZM6.06,24.336l-.434-.811a.183.183,0,0,1,.086-.28l5.849-3.121a.183.183,0,0,1,.28.085l.433.813a.182.182,0,0,1-.085.278L6.339,24.421a.25.25,0,0,1-.117.035A.186.186,0,0,1,6.06,24.336ZM4.7,21.844,3.123,18.115A4.663,4.663,0,0,1,2.8,17.093a1.567,1.567,0,0,1,.039-.76,1.293,1.293,0,0,1,.4-.572A2.953,2.953,0,0,1,4,15.317l1.246-.527a2.958,2.958,0,0,1,.844-.234,1.283,1.283,0,0,1,.689.111,1.6,1.6,0,0,1,.579.5,4.452,4.452,0,0,1,.515.939l1.072,2.534a3.3,3.3,0,0,1,.236.763,1.051,1.051,0,0,1-.049.56,1.006,1.006,0,0,1-.341.425,2.971,2.971,0,0,1-.632.349l-.822.348a.541.541,0,0,1-.435.042.594.594,0,0,1-.266-.327L4.788,16.433l-.208.087a.846.846,0,0,0-.505.444,1.239,1.239,0,0,0,.139.833L5.738,21.4a.15.15,0,0,1-.089.222l-.727.307a.222.222,0,0,1-.085.02A.149.149,0,0,1,4.7,21.844Zm1.09-5.836-.233.1,1.482,3.5a.142.142,0,0,0,.209.085l.362-.154a.569.569,0,0,0,.334-.273.645.645,0,0,0-.064-.464l-.918-2.17a1.269,1.269,0,0,0-.5-.682.566.566,0,0,0-.237-.048A1.155,1.155,0,0,0,5.79,16.008Zm106.465,4.2a2.231,2.231,0,0,1-.586-.151l-.42-.163a1.813,1.813,0,0,1-.461-.254.886.886,0,0,1-.277-.364,1.067,1.067,0,0,1-.062-.5,2.478,2.478,0,0,1,.175-.673l1.382-3.564-.168-.065a1.4,1.4,0,0,0-.375-.1.531.531,0,0,0-.3.057.7.7,0,0,0-.247.236,2.18,2.18,0,0,0-.227.455l-1.419,3.662a.151.151,0,0,1-.22.1l-.734-.286a.15.15,0,0,1-.1-.219l1.466-3.783a4.427,4.427,0,0,1,.484-.951,1.6,1.6,0,0,1,.565-.521,1.285,1.285,0,0,1,.686-.133,2.954,2.954,0,0,1,.851.208l2.33.9a1.7,1.7,0,0,1,.335.165.483.483,0,0,1,.173.187.432.432,0,0,1,.034.241,1.433,1.433,0,0,1-.093.326l-1.615,4.169a2.572,2.572,0,0,1-.324.615,1.061,1.061,0,0,1-.384.329.848.848,0,0,1-.365.079A1.036,1.036,0,0,1,112.255,20.205Zm-.713-2.165a.574.574,0,0,0-.039.424.468.468,0,0,0,.278.233l.185.071a.506.506,0,0,0,.388.024.565.565,0,0,0,.257-.339l1.144-2.951a.266.266,0,0,0,.01-.222.383.383,0,0,0-.21-.147l-.77-.3ZM2.082,14.223a1.663,1.663,0,0,1-.732-1.107L.012,8.088a.187.187,0,0,1,.144-.262L1.018,7.6a.186.186,0,0,1,.255.155L2.54,12.517a.471.471,0,0,0,.236.336.6.6,0,0,0,.4.01l.372-.1q.508-.134.383-.606l-.905-3.4a1.652,1.652,0,0,1,.089-1.3,1.631,1.631,0,0,1,1.05-.707l.663-.175A1.532,1.532,0,0,1,6,6.679a1.67,1.67,0,0,1,.732,1.107L8.014,12.6a.183.183,0,0,1-.146.253l-.862.23a.183.183,0,0,1-.253-.147L5.544,8.384a.468.468,0,0,0-.236-.335.605.605,0,0,0-.4-.01L4.6,8.122q-.508.134-.383.608l.905,3.4a1.664,1.664,0,0,1-.087,1.3,1.638,1.638,0,0,1-1.051.707l-.726.193a1.9,1.9,0,0,1-.488.068A1.4,1.4,0,0,1,2.082,14.223Zm113.349-1.257-6.373-1.828a.184.184,0,0,1-.142-.256L109.17,10a.184.184,0,0,1,.256-.141l6.373,1.829a.183.183,0,0,1,.141.256l-.254.885c-.03.1-.088.153-.174.153A.294.294,0,0,1,115.431,12.966Zm.717-2.612L109.7,8.82a.182.182,0,0,1-.152-.249l.213-.9a.181.181,0,0,1,.248-.153l6.45,1.534a.182.182,0,0,1,.153.248l-.211.9c-.027.109-.086.163-.179.163A.315.315,0,0,1,116.148,10.354Zm-4.18-3.05a.135.135,0,0,1-.051-.145l.153-1.069a.233.233,0,0,1,.162-.2l3.875-1.553a.9.9,0,0,0,.188-.092.148.148,0,0,0,.058-.1l-3.481-2.727a.228.228,0,0,1-.1-.241l.148-1.042a.134.134,0,0,1,.088-.125.184.184,0,0,1,.162.036l5.784,4.469a1.139,1.139,0,0,1,.4.594,2.36,2.36,0,0,1,.018.966l-.093.651a.148.148,0,0,1-.191.144l-.762-.108a.15.15,0,0,1-.144-.192l.079-.549a.5.5,0,0,0-.146-.5l-.812-.628a.692.692,0,0,1-.162.341.916.916,0,0,1-.323.2l-4.69,1.891a.255.255,0,0,1-.081.015A.147.147,0,0,1,111.968,7.3Z" transform="translate(58.95 138.58)" fill="#fff" stroke="rgba(0,0,0,0)" stroke-width="1"/>
    </g>
  </g>
</svg>
